<svg xmlns="http://www.w3.org/2000/svg" width="561.175" height="240.595" viewBox="0 0 561.175 240.595">
  <g id="mylogo" transform="translate(-210.831 -68.457)">
    <g id="Ellipse_1" data-name="Ellipse 1" transform="translate(345.922 150.728)" fill="#3e3e3e" stroke="#fff" stroke-width="1">
      <circle cx="52.01" cy="52.01" r="52.01" stroke="none"/>
      <circle cx="52.01" cy="52.01" r="51.51" fill="none"/>
    </g>
    <g id="Ellipse_2" data-name="Ellipse 2" transform="translate(358.924 163.731)" fill="none" stroke="#fff" stroke-width="10">
      <circle cx="39.007" cy="39.007" r="39.007" stroke="none"/>
      <circle cx="39.007" cy="39.007" r="34.007" fill="none"/>
    </g>
    <path id="Path_1" data-name="Path 1" d="M521.594,251.148S504.08,103.95,408.173,119.934,245.561,60.955,245.561,60.955s47.953,139.864,133.2,110.559S521.594,251.148,521.594,251.148Z" transform="translate(-30 10.826)" fill="#3e3e3e" stroke="#fff" stroke-width="10"/>
    <g id="Ellipse_3" data-name="Ellipse 3" transform="translate(532.896 150.728)" fill="#3e3e3e" stroke="#fff" stroke-width="1">
      <circle cx="52.01" cy="52.01" r="52.01" stroke="none"/>
      <circle cx="52.01" cy="52.01" r="51.51" fill="none"/>
    </g>
    <g id="Ellipse_4" data-name="Ellipse 4" transform="translate(545.899 163.731)" fill="none" stroke="#fff" stroke-width="10">
      <circle cx="39.007" cy="39.007" r="39.007" stroke="none"/>
      <circle cx="39.007" cy="39.007" r="34.007" fill="none"/>
    </g>
    <path id="Path_2" data-name="Path 2" d="M245.561,251.148s17.514-147.2,113.421-131.214S521.594,60.955,521.594,60.955s-47.953,139.864-133.2,110.559S245.561,251.148,245.561,251.148Z" transform="translate(245.683 10.826)" fill="#3e3e3e" stroke="#fff" stroke-width="10"/>
    <path id="Polygon_1" data-name="Polygon 1" d="M23.71,0l23.71,40.537H0Z" transform="translate(514.954 309.053) rotate(180)" fill="#3e3e3e"/>
    <path id="Path_3" data-name="Path 3" d="M370.729,216.658S369.4,331.213,475.96,279.263" transform="translate(-40.312 -23.949)" fill="none" stroke="#3e3e3e" stroke-linecap="round" stroke-width="6"/>
    <path id="Path_4" data-name="Path 4" d="M475.959,216.658s1.332,114.555-105.231,62.606" transform="translate(175.585 -23.949)" fill="none" stroke="#3e3e3e" stroke-linecap="round" stroke-width="6"/>
  </g>
</svg>
